<?xml version="1.0" encoding="UTF-8" standalone="no"?>
<!DOCTYPE svg PUBLIC "-//W3C//DTD SVG 1.1//EN"
 "http://www.w3.org/Graphics/SVG/1.1/DTD/svg11.dtd">
<!-- Generated by graphviz version 12.1.0 (20240811.2233)
 -->
<!-- Pages: 1 -->
<svg width="1440pt" height="1595pt"
 viewBox="0.00 0.00 1440.00 1595.01" xmlns="http://www.w3.org/2000/svg" xmlns:xlink="http://www.w3.org/1999/xlink">
<g id="graph0" class="graph" transform="scale(0.865311 0.865311) rotate(0) translate(4 1839.27)">
<polygon fill="white" stroke="none" points="-4,4 -4,-1839.27 1660.14,-1839.27 1660.14,4 -4,4"/>
<!-- 189845 -->
<g id="node1" class="node">
<title>189845</title>
<ellipse fill="none" stroke="black" cx="979.02" cy="-1701.28" rx="151.85" ry="134"/>
<text text-anchor="middle" x="979.02" y="-1778.73" font-family="Times,serif" font-size="14.00">Dmitrii Kalmanovich</text>
<text text-anchor="middle" x="979.02" y="-1762.23" font-family="Times,serif" font-size="14.00">Ребят, кто кото&#45;владельцы, а</text>
<text text-anchor="middle" x="979.02" y="-1745.73" font-family="Times,serif" font-size="14.00">вы чем своих питомцев кормите?</text>
<text text-anchor="middle" x="979.02" y="-1729.23" font-family="Times,serif" font-size="14.00">Мы покупали Farmina, сербского</text>
<text text-anchor="middle" x="979.02" y="-1712.73" font-family="Times,serif" font-size="14.00">развеса, но на него ценник</text>
<text text-anchor="middle" x="979.02" y="-1696.23" font-family="Times,serif" font-size="14.00">переписали &#45; за месяц с 1100</text>
<text text-anchor="middle" x="979.02" y="-1679.73" font-family="Times,serif" font-size="14.00">до 1900 за полтора кг. Наш 2</text>
<text text-anchor="middle" x="979.02" y="-1663.23" font-family="Times,serif" font-size="14.00">пачки в месяц сжирает плюс</text>
<text text-anchor="middle" x="979.02" y="-1646.73" font-family="Times,serif" font-size="14.00">паштетики еще, я прикинул &#45; я</text>
<text text-anchor="middle" x="979.02" y="-1630.23" font-family="Times,serif" font-size="14.00">за август на питание себя</text>
<text text-anchor="middle" x="979.02" y="-1613.73" font-family="Times,serif" font-size="14.00">потратил наверно меньше</text>
</g>
<!-- 189875 -->
<g id="node2" class="node">
<title>189875</title>
<ellipse fill="none" stroke="black" cx="370.02" cy="-1443.95" rx="140.18" ry="40.66"/>
<text text-anchor="middle" x="370.02" y="-1455.4" font-family="Times,serif" font-size="14.00">Andrei Sidorenko</text>
<text text-anchor="middle" x="370.02" y="-1438.9" font-family="Times,serif" font-size="14.00">Сухой роял канин на развес по</text>
<text text-anchor="middle" x="370.02" y="-1422.4" font-family="Times,serif" font-size="14.00">~ 300 лир за кг</text>
</g>
<!-- 189845&#45;&gt;189875 -->
<g id="edge1" class="edge">
<title>189845&#45;&gt;189875</title>
<path fill="none" stroke="black" d="M836.27,-1654.96C744.11,-1623.98 622.52,-1579.83 519.02,-1531.28 491.54,-1518.39 462.42,-1502.15 437.29,-1487.24"/>
<polygon fill="black" stroke="black" points="439.18,-1484.29 428.8,-1482.16 435.58,-1490.3 439.18,-1484.29"/>
</g>
<!-- 189916 -->
<g id="node3" class="node">
<title>189916</title>
<ellipse fill="none" stroke="black" cx="684.02" cy="-1443.95" rx="155.56" ry="63.99"/>
<text text-anchor="middle" x="684.02" y="-1471.9" font-family="Times,serif" font-size="14.00">Анна Горланова</text>
<text text-anchor="middle" x="684.02" y="-1455.4" font-family="Times,serif" font-size="14.00">Фарминой кормим, кошка съедает</text>
<text text-anchor="middle" x="684.02" y="-1438.9" font-family="Times,serif" font-size="14.00">1,5 кг за 1,5 месяца. А что у</text>
<text text-anchor="middle" x="684.02" y="-1422.4" font-family="Times,serif" font-size="14.00">вас за кот ( я как то удивлена</text>
<text text-anchor="middle" x="684.02" y="-1405.9" font-family="Times,serif" font-size="14.00">3 кг за 1 месяц…)</text>
</g>
<!-- 189845&#45;&gt;189916 -->
<g id="edge2" class="edge">
<title>189845&#45;&gt;189916</title>
<path fill="none" stroke="black" d="M870.85,-1606.65C833.55,-1574.38 792.64,-1538.97 758.64,-1509.54"/>
<polygon fill="black" stroke="black" points="761.14,-1507.08 751.29,-1503.18 756.56,-1512.37 761.14,-1507.08"/>
</g>
<!-- 189918 -->
<g id="node5" class="node">
<title>189918</title>
<ellipse fill="none" stroke="black" cx="979.02" cy="-1443.95" rx="121.09" ry="28.99"/>
<text text-anchor="middle" x="979.02" y="-1447.15" font-family="Times,serif" font-size="14.00">Анна Горланова</text>
<text text-anchor="middle" x="979.02" y="-1430.65" font-family="Times,serif" font-size="14.00">И какая именно фармина?</text>
</g>
<!-- 189845&#45;&gt;189918 -->
<g id="edge4" class="edge">
<title>189845&#45;&gt;189918</title>
<path fill="none" stroke="black" d="M979.02,-1567.01C979.02,-1536.87 979.02,-1507.16 979.02,-1484.59"/>
<polygon fill="black" stroke="black" points="982.52,-1484.67 979.02,-1474.67 975.52,-1484.67 982.52,-1484.67"/>
</g>
<!-- 189935 -->
<g id="node15" class="node">
<title>189935</title>
<ellipse fill="none" stroke="black" cx="1239.02" cy="-1443.95" rx="121.09" ry="28.99"/>
<text text-anchor="middle" x="1239.02" y="-1447.15" font-family="Times,serif" font-size="14.00">T4</text>
<text text-anchor="middle" x="1239.02" y="-1430.65" font-family="Times,serif" font-size="14.00">Такой вот на развес берём</text>
</g>
<!-- 189845&#45;&gt;189935 -->
<g id="edge14" class="edge">
<title>189845&#45;&gt;189935</title>
<path fill="none" stroke="black" d="M1080.28,-1600.83C1123.48,-1558.42 1171.13,-1511.62 1202.84,-1480.48"/>
<polygon fill="black" stroke="black" points="1205.18,-1483.09 1209.86,-1473.58 1200.27,-1478.09 1205.18,-1483.09"/>
</g>
<!-- 190343 -->
<g id="node20" class="node">
<title>190343</title>
<ellipse fill="none" stroke="black" cx="1517.02" cy="-1443.95" rx="139.12" ry="87.33"/>
<text text-anchor="middle" x="1517.02" y="-1488.4" font-family="Times,serif" font-size="14.00">Зубастый Анчоус</text>
<text text-anchor="middle" x="1517.02" y="-1471.9" font-family="Times,serif" font-size="14.00">Берем n&amp;d, два с половиной</text>
<text text-anchor="middle" x="1517.02" y="-1455.4" font-family="Times,serif" font-size="14.00">года полет отличный, цена все</text>
<text text-anchor="middle" x="1517.02" y="-1438.9" font-family="Times,serif" font-size="14.00">еще 1.1к за полтора кг,</text>
<text text-anchor="middle" x="1517.02" y="-1422.4" font-family="Times,serif" font-size="14.00">Пересаживали постепенно с</text>
<text text-anchor="middle" x="1517.02" y="-1405.9" font-family="Times,serif" font-size="14.00">фармины вроде, которым</text>
<text text-anchor="middle" x="1517.02" y="-1389.4" font-family="Times,serif" font-size="14.00">привыкли в рф кормить</text>
</g>
<!-- 189845&#45;&gt;190343 -->
<g id="edge19" class="edge">
<title>189845&#45;&gt;190343</title>
<path fill="none" stroke="black" d="M1117.13,-1645.15C1192.56,-1613.87 1287.04,-1572.76 1369.02,-1531.28 1381.6,-1524.91 1394.6,-1517.94 1407.43,-1510.81"/>
<polygon fill="black" stroke="black" points="1408.87,-1514.02 1415.88,-1506.07 1405.44,-1507.91 1408.87,-1514.02"/>
</g>
<!-- 189917 -->
<g id="node4" class="node">
<title>189917</title>
<ellipse fill="none" stroke="black" cx="247.02" cy="-1256.63" rx="70.71" ry="28.99"/>
<text text-anchor="middle" x="247.02" y="-1259.83" font-family="Times,serif" font-size="14.00">Ekaterina Elm</text>
<text text-anchor="middle" x="247.02" y="-1243.33" font-family="Times,serif" font-size="14.00">Прожорливый</text>
</g>
<!-- 189916&#45;&gt;189917 -->
<g id="edge3" class="edge">
<title>189916&#45;&gt;189917</title>
<path fill="none" stroke="black" d="M592.14,-1392.13C568.6,-1379.88 543.12,-1367.26 519.02,-1356.63 450.05,-1326.2 368.52,-1297.44 312.83,-1278.84"/>
<polygon fill="black" stroke="black" points="314.08,-1275.57 303.48,-1275.74 311.87,-1282.21 314.08,-1275.57"/>
</g>
<!-- 189920 -->
<g id="node7" class="node">
<title>189920</title>
<ellipse fill="none" stroke="black" cx="684.02" cy="-1256.63" rx="148.14" ry="63.99"/>
<text text-anchor="middle" x="684.02" y="-1284.58" font-family="Times,serif" font-size="14.00">Viktor</text>
<text text-anchor="middle" x="684.02" y="-1268.08" font-family="Times,serif" font-size="14.00">Кошки в принципе едят более</text>
<text text-anchor="middle" x="684.02" y="-1251.58" font-family="Times,serif" font-size="14.00">адекватно. Все коты что у меня</text>
<text text-anchor="middle" x="684.02" y="-1235.08" font-family="Times,serif" font-size="14.00">были не знают меры, и жрут как</text>
<text text-anchor="middle" x="684.02" y="-1218.58" font-family="Times,serif" font-size="14.00">в последний раз</text>
</g>
<!-- 189916&#45;&gt;189920 -->
<g id="edge6" class="edge">
<title>189916&#45;&gt;189920</title>
<path fill="none" stroke="black" d="M684.02,-1379.69C684.02,-1364.42 684.02,-1347.96 684.02,-1332.22"/>
<polygon fill="black" stroke="black" points="687.52,-1332.43 684.02,-1322.43 680.52,-1332.43 687.52,-1332.43"/>
</g>
<!-- 189919 -->
<g id="node6" class="node">
<title>189919</title>
<ellipse fill="none" stroke="black" cx="146.02" cy="-917.64" rx="137.53" ry="52.33"/>
<text text-anchor="middle" x="146.02" y="-937.34" font-family="Times,serif" font-size="14.00">Анна Горланова</text>
<text text-anchor="middle" x="146.02" y="-920.84" font-family="Times,serif" font-size="14.00">Может просто порода с весом</text>
<text text-anchor="middle" x="146.02" y="-904.34" font-family="Times,serif" font-size="14.00">около 6 кг и выше, тогда</text>
<text text-anchor="middle" x="146.02" y="-887.84" font-family="Times,serif" font-size="14.00">понятно</text>
</g>
<!-- 189917&#45;&gt;189919 -->
<g id="edge5" class="edge">
<title>189917&#45;&gt;189919</title>
<path fill="none" stroke="black" d="M238.58,-1227.48C222.41,-1173.54 186.72,-1054.46 164.69,-980.93"/>
<polygon fill="black" stroke="black" points="168.06,-980 161.84,-971.43 161.36,-982.01 168.06,-980"/>
</g>
<!-- 189933 -->
<g id="node14" class="node">
<title>189933</title>
<ellipse fill="none" stroke="black" cx="1220.02" cy="-1256.63" rx="91.27" ry="18"/>
<text text-anchor="middle" x="1220.02" y="-1251.58" font-family="Times,serif" font-size="14.00">Dmitrii Kalmanovich</text>
</g>
<!-- 189918&#45;&gt;189933 -->
<g id="edge13" class="edge">
<title>189918&#45;&gt;189933</title>
<path fill="none" stroke="black" d="M1014.32,-1415.81C1061.56,-1379.48 1144.56,-1315.66 1189.32,-1281.23"/>
<polygon fill="black" stroke="black" points="1191.28,-1284.15 1197.07,-1275.28 1187.01,-1278.6 1191.28,-1284.15"/>
</g>
<!-- 189926 -->
<g id="node11" class="node">
<title>189926</title>
<ellipse fill="none" stroke="black" cx="146.02" cy="-578.64" rx="96.17" ry="28.99"/>
<text text-anchor="middle" x="146.02" y="-581.84" font-family="Times,serif" font-size="14.00">Dmitrii Kalmanovich</text>
<text text-anchor="middle" x="146.02" y="-565.34" font-family="Times,serif" font-size="14.00">таец, 2,5 года, 5,9 кг</text>
</g>
<!-- 189919&#45;&gt;189926 -->
<g id="edge10" class="edge">
<title>189919&#45;&gt;189926</title>
<path fill="none" stroke="black" d="M146.02,-865.09C146.02,-797.5 146.02,-680.38 146.02,-619.29"/>
<polygon fill="black" stroke="black" points="149.52,-619.37 146.02,-609.37 142.52,-619.37 149.52,-619.37"/>
</g>
<!-- 189922 -->
<g id="node8" class="node">
<title>189922</title>
<ellipse fill="none" stroke="black" cx="463.02" cy="-917.64" rx="161.4" ry="28.99"/>
<text text-anchor="middle" x="463.02" y="-920.84" font-family="Times,serif" font-size="14.00">Анна Горланова</text>
<text text-anchor="middle" x="463.02" y="-904.34" font-family="Times,serif" font-size="14.00">А коты были бывшие бездомными?</text>
</g>
<!-- 189920&#45;&gt;189922 -->
<g id="edge7" class="edge">
<title>189920&#45;&gt;189922</title>
<path fill="none" stroke="black" d="M644,-1194.61C598.49,-1125.22 525.62,-1014.09 487.72,-956.3"/>
<polygon fill="black" stroke="black" points="490.74,-954.54 482.33,-948.09 484.89,-958.37 490.74,-954.54"/>
</g>
<!-- 189923 -->
<g id="node9" class="node">
<title>189923</title>
<ellipse fill="none" stroke="black" cx="784.02" cy="-917.64" rx="141.77" ry="30.58"/>
<text text-anchor="middle" x="784.02" y="-921.96" font-family="Times,serif" font-size="14.00">Irina</text>
<text text-anchor="middle" x="784.02" y="-905.46" font-family="Times,serif" font-size="14.00">У меня обратная статистика 🙄</text>
</g>
<!-- 189920&#45;&gt;189923 -->
<g id="edge8" class="edge">
<title>189920&#45;&gt;189923</title>
<path fill="none" stroke="black" d="M702.59,-1193.04C722.87,-1124.69 754.75,-1017.25 771.99,-959.17"/>
<polygon fill="black" stroke="black" points="775.32,-960.27 774.8,-949.68 768.6,-958.28 775.32,-960.27"/>
</g>
<!-- 189924 -->
<g id="node10" class="node">
<title>189924</title>
<ellipse fill="none" stroke="black" cx="463.02" cy="-578.64" rx="123.21" ry="40.66"/>
<text text-anchor="middle" x="463.02" y="-590.09" font-family="Times,serif" font-size="14.00">Viktor</text>
<text text-anchor="middle" x="463.02" y="-573.59" font-family="Times,serif" font-size="14.00">Разные, и полу уличные, и</text>
<text text-anchor="middle" x="463.02" y="-557.09" font-family="Times,serif" font-size="14.00">чисто домашние</text>
</g>
<!-- 189922&#45;&gt;189924 -->
<g id="edge9" class="edge">
<title>189922&#45;&gt;189924</title>
<path fill="none" stroke="black" d="M463.02,-888.2C463.02,-831.38 463.02,-703.12 463.02,-631.14"/>
<polygon fill="black" stroke="black" points="466.52,-631.17 463.02,-621.17 459.52,-631.17 466.52,-631.17"/>
</g>
<!-- 189929 -->
<g id="node12" class="node">
<title>189929</title>
<ellipse fill="none" stroke="black" cx="146.02" cy="-297.98" rx="146.02" ry="180.67"/>
<text text-anchor="middle" x="146.02" y="-408.43" font-family="Times,serif" font-size="14.00">Анна Горланова</text>
<text text-anchor="middle" x="146.02" y="-391.93" font-family="Times,serif" font-size="14.00">Ну да, на его вес так и</text>
<text text-anchor="middle" x="146.02" y="-375.43" font-family="Times,serif" font-size="14.00">выходит. Только насчет смены</text>
<text text-anchor="middle" x="146.02" y="-358.93" font-family="Times,serif" font-size="14.00">корма на другой надо быть</text>
<text text-anchor="middle" x="146.02" y="-342.43" font-family="Times,serif" font-size="14.00">осторожным, а то может</text>
<text text-anchor="middle" x="146.02" y="-325.93" font-family="Times,serif" font-size="14.00">перестать наедаться (будет</text>
<text text-anchor="middle" x="146.02" y="-309.43" font-family="Times,serif" font-size="14.00">меньше животного белка и в</text>
<text text-anchor="middle" x="146.02" y="-292.93" font-family="Times,serif" font-size="14.00">кормах дешевле есть куча</text>
<text text-anchor="middle" x="146.02" y="-276.43" font-family="Times,serif" font-size="14.00">злаков, которыми кот не</text>
<text text-anchor="middle" x="146.02" y="-259.93" font-family="Times,serif" font-size="14.00">наедается в принципе). В итоге</text>
<text text-anchor="middle" x="146.02" y="-243.43" font-family="Times,serif" font-size="14.00">кот будет есть еще больше,</text>
<text text-anchor="middle" x="146.02" y="-226.93" font-family="Times,serif" font-size="14.00">деньги так же уходить, проблем</text>
<text text-anchor="middle" x="146.02" y="-210.43" font-family="Times,serif" font-size="14.00">у него со здоровьем</text>
<text text-anchor="middle" x="146.02" y="-193.93" font-family="Times,serif" font-size="14.00">прибавится. Надо смотреть</text>
<text text-anchor="middle" x="146.02" y="-177.43" font-family="Times,serif" font-size="14.00">составы очень тщательно</text>
</g>
<!-- 189926&#45;&gt;189929 -->
<g id="edge11" class="edge">
<title>189926&#45;&gt;189929</title>
<path fill="none" stroke="black" d="M146.02,-549.39C146.02,-533.93 146.02,-513.3 146.02,-490.48"/>
<polygon fill="black" stroke="black" points="149.52,-490.63 146.02,-480.63 142.52,-490.63 149.52,-490.63"/>
</g>
<!-- 189930 -->
<g id="node13" class="node">
<title>189930</title>
<ellipse fill="none" stroke="black" cx="146.02" cy="-40.66" rx="131.7" ry="40.66"/>
<text text-anchor="middle" x="146.02" y="-52.11" font-family="Times,serif" font-size="14.00">Анна Горланова</text>
<text text-anchor="middle" x="146.02" y="-35.61" font-family="Times,serif" font-size="14.00">И это точно не роял и не про</text>
<text text-anchor="middle" x="146.02" y="-19.11" font-family="Times,serif" font-size="14.00">план</text>
</g>
<!-- 189929&#45;&gt;189930 -->
<g id="edge12" class="edge">
<title>189929&#45;&gt;189930</title>
<path fill="none" stroke="black" d="M146.02,-116.88C146.02,-108.44 146.02,-100.36 146.02,-92.84"/>
<polygon fill="black" stroke="black" points="149.52,-93.03 146.02,-83.03 142.52,-93.03 149.52,-93.03"/>
</g>
<!-- 189943 -->
<g id="node16" class="node">
<title>189943</title>
<ellipse fill="none" stroke="black" cx="1097.02" cy="-917.64" rx="152.91" ry="239"/>
<text text-anchor="middle" x="1097.02" y="-1069.34" font-family="Times,serif" font-size="14.00">Анна Горланова</text>
<text text-anchor="middle" x="1097.02" y="-1052.84" font-family="Times,serif" font-size="14.00">Этой пачки должно хватать на</text>
<text text-anchor="middle" x="1097.02" y="-1036.34" font-family="Times,serif" font-size="14.00">22 дня ему. Корм</text>
<text text-anchor="middle" x="1097.02" y="-1019.84" font-family="Times,serif" font-size="14.00">низкозерновой. Могу предложить</text>
<text text-anchor="middle" x="1097.02" y="-1003.34" font-family="Times,serif" font-size="14.00">перевести на беззерновую</text>
<text text-anchor="middle" x="1097.02" y="-986.84" font-family="Times,serif" font-size="14.00">линейку с более высокой</text>
<text text-anchor="middle" x="1097.02" y="-970.34" font-family="Times,serif" font-size="14.00">калорийностью. Ну и покупать</text>
<text text-anchor="middle" x="1097.02" y="-953.84" font-family="Times,serif" font-size="14.00">на трендиоле и сразу 5 кг, так</text>
<text text-anchor="middle" x="1097.02" y="-937.34" font-family="Times,serif" font-size="14.00">дешевле выходит Корма</text>
<text text-anchor="middle" x="1097.02" y="-920.84" font-family="Times,serif" font-size="14.00">примерные скинула их больше</text>
<text text-anchor="middle" x="1097.02" y="-904.34" font-family="Times,serif" font-size="14.00">(ну и есть ли заболевания</text>
<text text-anchor="middle" x="1097.02" y="-887.84" font-family="Times,serif" font-size="14.00">какие то у кота, тоже надо</text>
<text text-anchor="middle" x="1097.02" y="-871.34" font-family="Times,serif" font-size="14.00">учитывать) На развес брать не</text>
<text text-anchor="middle" x="1097.02" y="-854.84" font-family="Times,serif" font-size="14.00">рекомендую, тк корм имеет</text>
<text text-anchor="middle" x="1097.02" y="-838.34" font-family="Times,serif" font-size="14.00">свойства портиться и запах</text>
<text text-anchor="middle" x="1097.02" y="-821.84" font-family="Times,serif" font-size="14.00">вывестривается, что снижает</text>
<text text-anchor="middle" x="1097.02" y="-805.34" font-family="Times,serif" font-size="14.00">поедаемость корма, а в турции</text>
<text text-anchor="middle" x="1097.02" y="-788.84" font-family="Times,serif" font-size="14.00">жесть какая то с хранением</text>
<text text-anchor="middle" x="1097.02" y="-772.34" font-family="Times,serif" font-size="14.00">этих кормов, стоят открытые</text>
<text text-anchor="middle" x="1097.02" y="-755.84" font-family="Times,serif" font-size="14.00">все на такой жаре</text>
</g>
<!-- 189933&#45;&gt;189943 -->
<g id="edge15" class="edge">
<title>189933&#45;&gt;189943</title>
<path fill="none" stroke="black" d="M1213.75,-1238.46C1206.06,-1217.39 1192.11,-1179.16 1176.45,-1136.27"/>
<polygon fill="black" stroke="black" points="1179.78,-1135.19 1173.07,-1127 1173.21,-1137.59 1179.78,-1135.19"/>
</g>
<!-- 189944 -->
<g id="node17" class="node">
<title>189944</title>
<ellipse fill="none" stroke="black" cx="1344.02" cy="-917.64" rx="75.92" ry="18"/>
<text text-anchor="middle" x="1344.02" y="-912.59" font-family="Times,serif" font-size="14.00">Анна Горланова</text>
</g>
<!-- 189933&#45;&gt;189944 -->
<g id="edge16" class="edge">
<title>189933&#45;&gt;189944</title>
<path fill="none" stroke="black" d="M1226.95,-1238.53C1234.88,-1218.85 1248.17,-1185.52 1259.02,-1156.64 1287.33,-1081.23 1318.75,-991.57 1334.26,-946.89"/>
<polygon fill="black" stroke="black" points="1337.56,-948.05 1337.53,-937.46 1330.95,-945.76 1337.56,-948.05"/>
</g>
<!-- 189945 -->
<g id="node18" class="node">
<title>189945</title>
<ellipse fill="none" stroke="black" cx="1514.02" cy="-917.64" rx="75.92" ry="18"/>
<text text-anchor="middle" x="1514.02" y="-912.59" font-family="Times,serif" font-size="14.00">Анна Горланова</text>
</g>
<!-- 189933&#45;&gt;189945 -->
<g id="edge17" class="edge">
<title>189933&#45;&gt;189945</title>
<path fill="none" stroke="black" d="M1276.12,-1242.02C1322.93,-1227.95 1388.33,-1201.58 1429.02,-1156.64 1484.4,-1095.47 1504.28,-995.73 1510.94,-947.1"/>
<polygon fill="black" stroke="black" points="1514.38,-947.76 1512.17,-937.4 1507.44,-946.88 1514.38,-947.76"/>
</g>
<!-- 189949 -->
<g id="node19" class="node">
<title>189949</title>
<ellipse fill="none" stroke="black" cx="1097.02" cy="-578.64" rx="124.8" ry="63.99"/>
<text text-anchor="middle" x="1097.02" y="-606.59" font-family="Times,serif" font-size="14.00">Анна Горланова</text>
<text text-anchor="middle" x="1097.02" y="-590.09" font-family="Times,serif" font-size="14.00">Ну и переводить надо</text>
<text text-anchor="middle" x="1097.02" y="-573.59" font-family="Times,serif" font-size="14.00">правильно, есть схемы</text>
<text text-anchor="middle" x="1097.02" y="-557.09" font-family="Times,serif" font-size="14.00">добавления нового корма к</text>
<text text-anchor="middle" x="1097.02" y="-540.59" font-family="Times,serif" font-size="14.00">старому</text>
</g>
<!-- 189943&#45;&gt;189949 -->
<g id="edge18" class="edge">
<title>189943&#45;&gt;189949</title>
<path fill="none" stroke="black" d="M1097.02,-678.47C1097.02,-670.12 1097.02,-662.04 1097.02,-654.34"/>
<polygon fill="black" stroke="black" points="1100.52,-654.48 1097.02,-644.48 1093.52,-654.48 1100.52,-654.48"/>
</g>
</g>
</svg>
